# xmcd
#
# Track frame offsets: 
#        150
#        15515
#        31305
#        41284
#        60047
#        79261
#        96389
#        113548
#        117382
#        136653
#        157182
#
# Disc length: 2347 seconds
#
# Revision: 0
# Processed by: cddbd v1.5.1PL2 Copyright (c) Steve Scherf et al.
# Submitted via: ExactAudioCopy v0.95b3
#
DISCID=7c09290b
DTITLE=Son Of Dave - O2
DYEAR=2005
DGENRE=Breakbeat Blues
TTITLE0=Leave Without Runnin'
TTITLE1=Goddamn
TTITLE2=Get You Back
TTITLE3=San Francisco
TTITLE4=Devil Take My Soul (Feat. Martina Topley Bird)
TTITLE5=Crossroad Blues
TTITLE6=I Got What You Need
TTITLE7=Crickets
TTITLE8=Life Is So Easy Now
TTITLE9=Rollin' And Tumblin'
TTITLE10=Mannish Boy
EXTD=
EXTT0=
EXTT1=
EXTT2=
EXTT3=
EXTT4=
EXTT5=
EXTT6=
EXTT7=
EXTT8=
EXTT9=
EXTT10=
PLAYORDER=
